<svg width="28" height="28" viewBox="0 0 28 28" fill="none" xmlns="http://www.w3.org/2000/svg">
<path fill-rule="evenodd" clip-rule="evenodd" d="M22.262 14.6259V14.6228C22.7615 14.1001 23.1543 13.4846 23.418 12.8106C23.697 12.0975 23.8254 11.3345 23.7952 10.5694C23.765 9.80427 23.5768 9.0537 23.2424 8.36487C22.9081 7.67604 22.4348 7.06385 21.8524 6.56679C21.27 6.06974 20.591 5.69857 19.8582 5.47664C19.1253 5.25471 18.3545 5.18682 17.5942 5.27723C16.8339 5.36764 16.1005 5.61441 15.4401 6.002C14.8934 6.32291 14.4065 6.73462 14 7.21855C13.5935 6.73462 13.1066 6.32291 12.5599 6.002C11.8995 5.61441 11.1661 5.36764 10.4058 5.27723C9.64545 5.18682 8.87463 5.25471 8.14181 5.47664C7.40899 5.69857 6.73002 6.06974 6.14759 6.56679C5.56517 7.06385 5.0919 7.67604 4.75754 8.36487C4.42319 9.0537 4.23498 9.80427 4.20476 10.5694C4.17454 11.3345 4.30296 12.0975 4.58195 12.8106C4.86093 13.5236 5.28446 14.1713 5.82587 14.7127L14 22.8858L22.262 14.6259Z" fill="#BB8C5F"/>
</svg>
