<svg width="192" height="63" viewBox="0 0 192 63" fill="none" xmlns="http://www.w3.org/2000/svg">
<path d="M35.0828 47.928V47.2H41.0048V47.928H38.4288V57H37.6588V47.928H35.0828ZM51.2187 57L49.8607 53.71H45.6467L44.3027 57H43.4347L47.7607 46.822L52.0867 57H51.2187ZM47.7607 48.6L45.9547 52.982H49.5667L47.7607 48.6ZM54.9207 47.928V47.2H60.8427V47.928H58.2667V57H57.4967V47.928H54.9207ZM65.1609 47.928V47.2H71.0829V47.928H68.5069V57H67.7369V47.928H65.1609ZM74.7 52.1C74.7 51.3813 74.8214 50.7187 75.064 50.112C75.3067 49.496 75.6474 48.964 76.086 48.516C76.5247 48.0587 77.038 47.704 77.626 47.452C78.2234 47.2 78.872 47.074 79.572 47.074C80.272 47.074 80.916 47.2 81.504 47.452C82.1014 47.704 82.6194 48.0587 83.058 48.516C83.4967 48.964 83.8374 49.496 84.08 50.112C84.3227 50.7187 84.444 51.3813 84.444 52.1C84.444 52.8187 84.3227 53.486 84.08 54.102C83.8374 54.7087 83.4967 55.2407 83.058 55.698C82.6194 56.146 82.1014 56.496 81.504 56.748C80.916 57 80.272 57.126 79.572 57.126C78.872 57.126 78.2234 57 77.626 56.748C77.038 56.496 76.5247 56.146 76.086 55.698C75.6474 55.2407 75.3067 54.7087 75.064 54.102C74.8214 53.486 74.7 52.8187 74.7 52.1ZM75.512 52.1C75.512 52.912 75.6847 53.64 76.03 54.284C76.3847 54.928 76.8654 55.4367 77.472 55.81C78.088 56.174 78.788 56.356 79.572 56.356C80.356 56.356 81.0514 56.174 81.658 55.81C82.274 55.4367 82.7547 54.928 83.1 54.284C83.4454 53.64 83.618 52.912 83.618 52.1C83.618 51.2787 83.4454 50.5507 83.1 49.916C82.7547 49.272 82.274 48.768 81.658 48.404C81.0514 48.0307 80.356 47.844 79.572 47.844C78.788 47.844 78.088 48.0307 77.472 48.404C76.8654 48.768 76.3847 49.272 76.03 49.916C75.6847 50.5507 75.512 51.2787 75.512 52.1ZM89.1649 52.1C89.1649 51.3813 89.2862 50.7187 89.5289 50.112C89.7716 49.496 90.1122 48.964 90.5509 48.516C90.9896 48.0587 91.5029 47.704 92.0909 47.452C92.6882 47.2 93.3369 47.074 94.0369 47.074C94.7369 47.074 95.3809 47.2 95.9689 47.452C96.5662 47.704 97.0842 48.0587 97.5229 48.516C97.9616 48.964 98.3022 49.496 98.5449 50.112C98.7876 50.7187 98.9089 51.3813 98.9089 52.1C98.9089 52.8187 98.7876 53.486 98.5449 54.102C98.3022 54.7087 97.9616 55.2407 97.5229 55.698C97.0842 56.146 96.5662 56.496 95.9689 56.748C95.3809 57 94.7369 57.126 94.0369 57.126C93.3369 57.126 92.6882 57 92.0909 56.748C91.5029 56.496 90.9896 56.146 90.5509 55.698C90.1122 55.2407 89.7716 54.7087 89.5289 54.102C89.2862 53.486 89.1649 52.8187 89.1649 52.1ZM89.9769 52.1C89.9769 52.912 90.1496 53.64 90.4949 54.284C90.8496 54.928 91.3302 55.4367 91.9369 55.81C92.5529 56.174 93.2529 56.356 94.0369 56.356C94.8209 56.356 95.5162 56.174 96.1229 55.81C96.7389 55.4367 97.2196 54.928 97.5649 54.284C97.9102 53.64 98.0829 52.912 98.0829 52.1C98.0829 51.2787 97.9102 50.5507 97.5649 49.916C97.2196 49.272 96.7389 48.768 96.1229 48.404C95.5162 48.0307 94.8209 47.844 94.0369 47.844C93.2529 47.844 92.5529 48.0307 91.9369 48.404C91.3302 48.768 90.8496 49.272 90.4949 49.916C90.1496 50.5507 89.9769 51.2787 89.9769 52.1ZM111.957 54.172C112.116 54.5827 112.307 54.9607 112.531 55.306C112.755 55.642 113.035 55.908 113.371 56.104C113.707 56.3 114.113 56.398 114.589 56.398C115.224 56.398 115.718 56.2253 116.073 55.88C116.437 55.5253 116.619 55.0773 116.619 54.536C116.619 54.06 116.512 53.6773 116.297 53.388C116.082 53.0987 115.802 52.8653 115.457 52.688C115.121 52.5013 114.766 52.338 114.393 52.198C114.113 52.0953 113.819 51.974 113.511 51.834C113.212 51.6847 112.932 51.5073 112.671 51.302C112.41 51.0873 112.195 50.8307 112.027 50.532C111.868 50.2333 111.789 49.874 111.789 49.454C111.789 48.978 111.901 48.5627 112.125 48.208C112.349 47.8533 112.657 47.578 113.049 47.382C113.45 47.1767 113.908 47.074 114.421 47.074C114.944 47.074 115.392 47.172 115.765 47.368C116.148 47.564 116.465 47.8113 116.717 48.11C116.969 48.4087 117.16 48.7167 117.291 49.034L116.619 49.412C116.507 49.16 116.358 48.9127 116.171 48.67C115.984 48.4273 115.746 48.2267 115.457 48.068C115.168 47.9 114.808 47.816 114.379 47.816C113.81 47.816 113.371 47.9653 113.063 48.264C112.755 48.5533 112.601 48.9173 112.601 49.356C112.601 49.8973 112.797 50.336 113.189 50.672C113.59 51.008 114.188 51.316 114.981 51.596C115.345 51.7267 115.714 51.904 116.087 52.128C116.47 52.352 116.787 52.6507 117.039 53.024C117.291 53.3973 117.417 53.8733 117.417 54.452C117.417 54.984 117.291 55.4507 117.039 55.852C116.787 56.2533 116.446 56.566 116.017 56.79C115.588 57.014 115.107 57.126 114.575 57.126C114.015 57.126 113.516 57.0093 113.077 56.776C112.648 56.5333 112.288 56.2207 111.999 55.838C111.71 55.446 111.486 55.0213 111.327 54.564L111.957 54.172ZM122.729 47.2H123.499V51.302H129.225V47.2H130.009V57H129.225V52.03H123.499V57H122.729V47.2ZM135.28 52.1C135.28 51.3813 135.401 50.7187 135.644 50.112C135.887 49.496 136.227 48.964 136.666 48.516C137.105 48.0587 137.618 47.704 138.206 47.452C138.803 47.2 139.452 47.074 140.152 47.074C140.852 47.074 141.496 47.2 142.084 47.452C142.681 47.704 143.199 48.0587 143.638 48.516C144.077 48.964 144.417 49.496 144.66 50.112C144.903 50.7187 145.024 51.3813 145.024 52.1C145.024 52.8187 144.903 53.486 144.66 54.102C144.417 54.7087 144.077 55.2407 143.638 55.698C143.199 56.146 142.681 56.496 142.084 56.748C141.496 57 140.852 57.126 140.152 57.126C139.452 57.126 138.803 57 138.206 56.748C137.618 56.496 137.105 56.146 136.666 55.698C136.227 55.2407 135.887 54.7087 135.644 54.102C135.401 53.486 135.28 52.8187 135.28 52.1ZM136.092 52.1C136.092 52.912 136.265 53.64 136.61 54.284C136.965 54.928 137.445 55.4367 138.052 55.81C138.668 56.174 139.368 56.356 140.152 56.356C140.936 56.356 141.631 56.174 142.238 55.81C142.854 55.4367 143.335 54.928 143.68 54.284C144.025 53.64 144.198 52.912 144.198 52.1C144.198 51.2787 144.025 50.5507 143.68 49.916C143.335 49.272 142.854 48.768 142.238 48.404C141.631 48.0307 140.936 47.844 140.152 47.844C139.368 47.844 138.668 48.0307 138.052 48.404C137.445 48.768 136.965 49.272 136.61 49.916C136.265 50.5507 136.092 51.2787 136.092 52.1ZM150.305 47.2H152.601C153.217 47.2 153.763 47.3167 154.239 47.55C154.724 47.7833 155.107 48.1147 155.387 48.544C155.667 48.9733 155.807 49.4913 155.807 50.098C155.807 50.6953 155.667 51.2133 155.387 51.652C155.107 52.0813 154.724 52.4127 154.239 52.646C153.763 52.8793 153.217 52.996 152.601 52.996H151.075V57H150.305V47.2ZM152.601 47.928H151.075V52.268H152.601C153.32 52.268 153.903 52.086 154.351 51.722C154.799 51.3487 155.023 50.8073 155.023 50.098C155.023 49.3887 154.799 48.852 154.351 48.488C153.903 48.1147 153.32 47.928 152.601 47.928Z" fill="#BB8C5F"/>
<path d="M2.83718e-05 38L2.88678 40.8868L5.77353 38L2.88678 35.1133L2.83718e-05 38ZM191.774 38L188.887 35.1132L186 38L188.887 40.8868L191.774 38ZM2.88678 38.5L188.887 38.5L188.887 37.5L2.88678 37.5L2.88678 38.5Z" fill="#BB8C5F"/>
<path d="M28.3768 28.7H28.5268C28.6668 28.7 28.7968 28.64 28.9168 28.52C29.0368 28.4 29.1368 28.26 29.2168 28.1C29.3168 27.94 29.3868 27.77 29.4268 27.59C29.4668 27.39 29.4868 27.21 29.4868 27.05V11.27L21.7468 29.33L14.3968 12.2V27.05C14.3968 27.21 14.4168 27.39 14.4568 27.59C14.4968 27.77 14.5568 27.94 14.6368 28.1C14.7368 28.26 14.8468 28.4 14.9668 28.52C15.0868 28.64 15.2268 28.7 15.3868 28.7H15.5368V29H12.2668V28.7H12.4168C12.5568 28.7 12.6868 28.64 12.8068 28.52C12.9268 28.4 13.0268 28.26 13.1068 28.1C13.1868 27.94 13.2468 27.77 13.2868 27.59C13.3268 27.39 13.3468 27.21 13.3468 27.05V11.06C13.3468 10.92 13.3268 10.76 13.2868 10.58C13.2468 10.4 13.1868 10.23 13.1068 10.07C13.0268 9.91 12.9268 9.78 12.8068 9.68C12.6868 9.56 12.5568 9.5 12.4168 9.5H12.2668V9.2H15.3268L22.2868 25.61L29.2468 9.2H32.6368V9.5H32.4868C32.3268 9.5 32.1868 9.56 32.0668 9.68C31.9468 9.78 31.8368 9.91 31.7368 10.07C31.6568 10.23 31.5968 10.4 31.5568 10.58C31.5168 10.76 31.4968 10.92 31.4968 11.06V27.05C31.4968 27.21 31.5168 27.39 31.5568 27.59C31.5968 27.77 31.6568 27.94 31.7368 28.1C31.8368 28.26 31.9468 28.4 32.0668 28.52C32.1868 28.64 32.3268 28.7 32.4868 28.7H32.6368V29H28.3768V28.7ZM39.6371 28.7H39.7871V29H35.5571V28.7H35.7071C35.8471 28.7 35.9771 28.64 36.0971 28.52C36.2171 28.4 36.3171 28.26 36.3971 28.1C36.4971 27.94 36.5671 27.77 36.6071 27.59C36.6471 27.39 36.6671 27.21 36.6671 27.05V11.06C36.6671 10.92 36.6471 10.76 36.6071 10.58C36.5671 10.4 36.4971 10.23 36.3971 10.07C36.3171 9.91 36.2171 9.78 36.0971 9.68C35.9771 9.56 35.8471 9.5 35.7071 9.5H35.5571V9.2H40.7771C42.7771 9.2 44.3171 9.59 45.3971 10.37C46.4971 11.15 47.0471 12.3 47.0471 13.82C47.0471 14.58 46.9171 15.25 46.6571 15.83C46.4171 16.39 46.0871 16.88 45.6671 17.3C45.2471 17.7 44.7471 18.03 44.1671 18.29C43.6071 18.53 43.0071 18.71 42.3671 18.83L44.5271 22.13C45.0471 22.93 45.5771 23.72 46.1171 24.5C46.6571 25.26 47.1871 26.05 47.7071 26.87C47.8471 27.07 47.9971 27.28 48.1571 27.5C48.3371 27.72 48.5171 27.92 48.6971 28.1C48.8971 28.28 49.0971 28.43 49.2971 28.55C49.5171 28.65 49.7371 28.7 49.9571 28.7V29H48.6671C47.8671 29 47.2071 28.81 46.6871 28.43C46.1871 28.03 45.7671 27.57 45.4271 27.05C44.5271 25.73 43.6271 24.39 42.7271 23.03C41.8471 21.67 40.9671 20.33 40.0871 19.01C39.8671 18.99 39.6271 18.97 39.3671 18.95C39.1271 18.91 38.8971 18.87 38.6771 18.83V27.05C38.6771 27.21 38.6971 27.39 38.7371 27.59C38.7771 27.77 38.8371 27.94 38.9171 28.1C39.0171 28.26 39.1171 28.4 39.2171 28.52C39.3371 28.64 39.4771 28.7 39.6371 28.7ZM38.6771 10.22V17.84H38.8271C38.9871 17.86 39.2371 17.88 39.5771 17.9C39.9371 17.9 40.3771 17.9 40.8971 17.9C41.3171 17.9 41.7571 17.84 42.2171 17.72C42.6971 17.58 43.1371 17.36 43.5371 17.06C43.9571 16.74 44.2971 16.33 44.5571 15.83C44.8371 15.33 44.9771 14.7 44.9771 13.94C44.9771 13.18 44.8271 12.56 44.5271 12.08C44.2471 11.6 43.8471 11.22 43.3271 10.94C42.8271 10.66 42.2171 10.47 41.4971 10.37C40.7771 10.27 39.9871 10.22 39.1271 10.22H38.6771ZM51.9683 27.71C51.9683 27.31 52.0983 26.97 52.3583 26.69C52.6383 26.41 52.9783 26.27 53.3783 26.27C53.7783 26.27 54.1183 26.41 54.3983 26.69C54.6783 26.97 54.8183 27.31 54.8183 27.71C54.8183 28.11 54.6783 28.45 54.3983 28.73C54.1183 28.99 53.7783 29.12 53.3783 29.12C52.9783 29.12 52.6383 28.99 52.3583 28.73C52.0983 28.45 51.9683 28.11 51.9683 27.71ZM65.5564 28.7H65.7064C65.8464 28.7 65.9764 28.64 66.0964 28.52C66.2164 28.4 66.3164 28.26 66.3964 28.1C66.4964 27.94 66.5664 27.77 66.6064 27.59C66.6464 27.39 66.6664 27.21 66.6664 27.05V11.06C66.6664 10.92 66.6464 10.76 66.6064 10.58C66.5664 10.4 66.5064 10.23 66.4264 10.07C66.3464 9.91 66.2464 9.78 66.1264 9.68C66.0064 9.56 65.8664 9.5 65.7064 9.5H65.5564V9.2H71.3464C72.9264 9.2 74.3464 9.48 75.6064 10.04C76.8664 10.58 77.9264 11.32 78.7864 12.26C79.6664 13.18 80.3364 14.24 80.7964 15.44C81.2564 16.64 81.4864 17.89 81.4864 19.19C81.4864 20.41 81.2664 21.61 80.8264 22.79C80.3864 23.95 79.7264 24.99 78.8464 25.91C77.9664 26.83 76.8664 27.58 75.5464 28.16C74.2264 28.72 72.6964 29 70.9564 29H65.5564V28.7ZM79.4464 19.64C79.4464 18.36 79.2164 17.15 78.7564 16.01C78.2964 14.87 77.6464 13.88 76.8064 13.04C75.9864 12.18 75.0064 11.5 73.8664 11C72.7464 10.5 71.5264 10.25 70.2064 10.25H68.6764V27.95H70.2664C71.3464 27.95 72.4264 27.79 73.5064 27.47C74.6064 27.13 75.5964 26.62 76.4764 25.94C77.3564 25.24 78.0664 24.37 78.6064 23.33C79.1664 22.29 79.4464 21.06 79.4464 19.64ZM88.1527 28.7H88.3027V29H84.0727V28.7H84.2227C84.3627 28.7 84.4927 28.64 84.6127 28.52C84.7327 28.4 84.8327 28.26 84.9127 28.1C85.0127 27.94 85.0827 27.77 85.1227 27.59C85.1627 27.39 85.1827 27.21 85.1827 27.05V11.06C85.1827 10.92 85.1627 10.76 85.1227 10.58C85.0827 10.4 85.0127 10.23 84.9127 10.07C84.8327 9.91 84.7327 9.78 84.6127 9.68C84.4927 9.56 84.3627 9.5 84.2227 9.5H84.0727V9.2H89.2927C91.2927 9.2 92.8327 9.59 93.9127 10.37C95.0127 11.15 95.5627 12.3 95.5627 13.82C95.5627 14.58 95.4327 15.25 95.1727 15.83C94.9327 16.39 94.6027 16.88 94.1827 17.3C93.7627 17.7 93.2627 18.03 92.6827 18.29C92.1227 18.53 91.5227 18.71 90.8827 18.83L93.0427 22.13C93.5627 22.93 94.0927 23.72 94.6327 24.5C95.1727 25.26 95.7027 26.05 96.2227 26.87C96.3627 27.07 96.5127 27.28 96.6727 27.5C96.8527 27.72 97.0327 27.92 97.2127 28.1C97.4127 28.28 97.6127 28.43 97.8127 28.55C98.0327 28.65 98.2527 28.7 98.4727 28.7V29H97.1827C96.3827 29 95.7227 28.81 95.2027 28.43C94.7027 28.03 94.2827 27.57 93.9427 27.05C93.0427 25.73 92.1427 24.39 91.2427 23.03C90.3627 21.67 89.4827 20.33 88.6027 19.01C88.3827 18.99 88.1427 18.97 87.8827 18.95C87.6427 18.91 87.4127 18.87 87.1927 18.83V27.05C87.1927 27.21 87.2127 27.39 87.2527 27.59C87.2927 27.77 87.3527 27.94 87.4327 28.1C87.5327 28.26 87.6327 28.4 87.7327 28.52C87.8527 28.64 87.9927 28.7 88.1527 28.7ZM87.1927 10.22V17.84H87.3427C87.5027 17.86 87.7527 17.88 88.0927 17.9C88.4527 17.9 88.8927 17.9 89.4127 17.9C89.8327 17.9 90.2727 17.84 90.7327 17.72C91.2127 17.58 91.6527 17.36 92.0527 17.06C92.4727 16.74 92.8127 16.33 93.0727 15.83C93.3527 15.33 93.4927 14.7 93.4927 13.94C93.4927 13.18 93.3427 12.56 93.0427 12.08C92.7627 11.6 92.3627 11.22 91.8427 10.94C91.3427 10.66 90.7327 10.47 90.0127 10.37C89.2927 10.27 88.5027 10.22 87.6427 10.22H87.1927ZM100.394 9.2H104.684V9.5H104.534C104.394 9.5 104.264 9.56 104.144 9.68C104.024 9.78 103.924 9.91 103.844 10.07C103.764 10.21 103.694 10.38 103.634 10.58C103.594 10.76 103.574 10.92 103.574 11.06V27.05C103.574 27.21 103.594 27.39 103.634 27.59C103.674 27.77 103.734 27.94 103.814 28.1C103.914 28.26 104.014 28.4 104.114 28.52C104.234 28.64 104.374 28.7 104.534 28.7H104.684V29H100.394V28.7H100.544C100.704 28.7 100.844 28.65 100.964 28.55C101.084 28.43 101.184 28.29 101.264 28.13C101.364 27.95 101.434 27.77 101.474 27.59C101.514 27.39 101.534 27.21 101.534 27.05V11.06C101.534 10.92 101.514 10.76 101.474 10.58C101.434 10.4 101.364 10.23 101.264 10.07C101.184 9.91 101.084 9.78 100.964 9.68C100.844 9.56 100.704 9.5 100.544 9.5H100.394V9.2ZM119.719 23.69C119.719 24.69 119.519 25.55 119.119 26.27C118.719 26.97 118.199 27.54 117.559 27.98C116.939 28.42 116.229 28.74 115.429 28.94C114.649 29.14 113.869 29.24 113.089 29.24C112.289 29.24 111.599 29.16 111.019 29C110.439 28.84 109.909 28.69 109.429 28.55C109.109 28.45 108.819 28.37 108.559 28.31C108.299 28.23 108.039 28.19 107.779 28.19V24.77H108.079C108.079 25.53 108.269 26.14 108.649 26.6C109.049 27.04 109.509 27.38 110.029 27.62C110.549 27.86 111.069 28.02 111.589 28.1C112.109 28.16 112.489 28.19 112.729 28.19C113.589 28.19 114.329 28.07 114.949 27.83C115.569 27.57 116.079 27.24 116.479 26.84C116.879 26.42 117.169 25.96 117.349 25.46C117.549 24.96 117.649 24.45 117.649 23.93C117.649 23.27 117.509 22.72 117.229 22.28C116.949 21.82 116.579 21.42 116.119 21.08C115.679 20.74 115.169 20.45 114.589 20.21C114.009 19.97 113.419 19.73 112.819 19.49C112.139 19.23 111.469 18.96 110.809 18.68C110.149 18.4 109.559 18.06 109.039 17.66C108.519 17.24 108.099 16.75 107.779 16.19C107.459 15.61 107.299 14.9 107.299 14.06C107.299 13.18 107.469 12.42 107.809 11.78C108.149 11.12 108.599 10.58 109.159 10.16C109.739 9.74 110.389 9.43 111.109 9.23C111.849 9.01 112.599 8.9 113.359 8.9C113.879 8.9 114.369 8.94 114.829 9.02C115.289 9.08 115.729 9.16 116.149 9.26C116.489 9.34 116.819 9.41 117.139 9.47C117.459 9.51 117.769 9.53 118.069 9.53V12.62H117.769C117.729 11.58 117.319 10.88 116.539 10.52C115.759 10.14 114.679 9.95 113.299 9.95C112.499 9.95 111.839 10.09 111.319 10.37C110.819 10.63 110.419 10.96 110.119 11.36C109.819 11.74 109.609 12.16 109.489 12.62C109.389 13.06 109.339 13.45 109.339 13.79C109.339 14.35 109.459 14.83 109.699 15.23C109.959 15.63 110.299 15.98 110.719 16.28C111.139 16.58 111.619 16.85 112.159 17.09C112.719 17.33 113.299 17.56 113.899 17.78C114.579 18.04 115.269 18.32 115.969 18.62C116.669 18.92 117.289 19.29 117.829 19.73C118.389 20.17 118.839 20.71 119.179 21.35C119.539 21.99 119.719 22.77 119.719 23.69ZM126.416 28.7H126.566V29H122.276V28.7H122.426C122.586 28.7 122.726 28.64 122.846 28.52C122.966 28.4 123.066 28.26 123.146 28.1C123.246 27.94 123.316 27.77 123.356 27.59C123.396 27.39 123.416 27.21 123.416 27.05V11.06C123.416 10.92 123.396 10.76 123.356 10.58C123.316 10.4 123.246 10.23 123.146 10.07C123.066 9.91 122.966 9.78 122.846 9.68C122.726 9.56 122.596 9.5 122.456 9.5H122.306V9.2H126.596V9.5H126.446C126.286 9.5 126.146 9.56 126.026 9.68C125.906 9.78 125.796 9.91 125.696 10.07C125.616 10.23 125.546 10.4 125.486 10.58C125.446 10.76 125.426 10.92 125.426 11.06V18.02L133.046 10.46C133.166 10.32 133.226 10.16 133.226 9.98C133.226 9.66 133.106 9.5 132.866 9.5H132.716V9.2H136.376V9.5H136.226C135.946 9.5 135.656 9.6 135.356 9.8C135.056 10 134.756 10.25 134.456 10.55L128.156 16.82L134.786 26.87C134.806 26.91 134.896 27.03 135.056 27.23C135.216 27.43 135.406 27.64 135.626 27.86C135.866 28.08 136.126 28.28 136.406 28.46C136.706 28.62 137.006 28.7 137.306 28.7V29H136.586C135.986 29 135.476 28.97 135.056 28.91C134.656 28.83 134.306 28.71 134.006 28.55C133.706 28.39 133.436 28.19 133.196 27.95C132.976 27.71 132.746 27.41 132.506 27.05L126.686 18.26L125.426 19.55V27.05C125.426 27.21 125.446 27.38 125.486 27.56C125.546 27.74 125.616 27.92 125.696 28.1C125.776 28.26 125.876 28.4 125.996 28.52C126.116 28.64 126.256 28.7 126.416 28.7ZM139.268 28.7H139.418C139.578 28.7 139.718 28.65 139.838 28.55C139.958 28.43 140.058 28.29 140.138 28.13C140.238 27.97 140.308 27.8 140.348 27.62C140.408 27.44 140.438 27.27 140.438 27.11V11.06C140.438 10.92 140.408 10.76 140.348 10.58C140.308 10.4 140.238 10.23 140.138 10.07C140.058 9.91 139.958 9.78 139.838 9.68C139.718 9.56 139.578 9.5 139.418 9.5H139.268V9.2H150.818V11.99H150.518C150.478 11.53 150.298 11.13 149.978 10.79C149.658 10.43 149.158 10.25 148.478 10.25H142.448V17.84H147.428C147.888 17.84 148.268 17.7 148.568 17.42C148.888 17.14 149.048 16.81 149.048 16.43H149.348V20.18H149.048C149.048 19.82 148.898 19.51 148.598 19.25C148.298 18.99 147.908 18.86 147.428 18.86H142.448V27.95H149.018C149.398 27.95 149.728 27.86 150.008 27.68C150.288 27.5 150.518 27.29 150.698 27.05C150.898 26.79 151.038 26.52 151.118 26.24C151.218 25.94 151.268 25.69 151.268 25.49H151.568V29H139.268V28.7ZM153.829 28.7H153.979C154.139 28.7 154.279 28.65 154.399 28.55C154.519 28.43 154.619 28.29 154.699 28.13C154.799 27.97 154.869 27.8 154.909 27.62C154.969 27.44 154.999 27.27 154.999 27.11V11.06C154.999 10.92 154.969 10.76 154.909 10.58C154.869 10.4 154.799 10.23 154.699 10.07C154.619 9.91 154.519 9.78 154.399 9.68C154.279 9.56 154.139 9.5 153.979 9.5H153.829V9.2H158.149V9.5H157.999C157.839 9.5 157.699 9.56 157.579 9.68C157.459 9.78 157.359 9.91 157.279 10.07C157.199 10.23 157.129 10.4 157.069 10.58C157.029 10.76 157.009 10.92 157.009 11.06V27.89H163.579C163.959 27.89 164.289 27.8 164.569 27.62C164.849 27.44 165.079 27.22 165.259 26.96C165.459 26.68 165.599 26.39 165.679 26.09C165.779 25.77 165.829 25.48 165.829 25.22H166.129V29H153.829V28.7ZM167.774 28.7H167.924C168.084 28.7 168.224 28.65 168.344 28.55C168.464 28.43 168.564 28.29 168.644 28.13C168.744 27.97 168.814 27.8 168.854 27.62C168.914 27.44 168.944 27.27 168.944 27.11V11.06C168.944 10.92 168.914 10.76 168.854 10.58C168.814 10.4 168.744 10.23 168.644 10.07C168.564 9.91 168.464 9.78 168.344 9.68C168.224 9.56 168.084 9.5 167.924 9.5H167.774V9.2H172.094V9.5H171.944C171.784 9.5 171.644 9.56 171.524 9.68C171.404 9.78 171.304 9.91 171.224 10.07C171.144 10.23 171.074 10.4 171.014 10.58C170.974 10.76 170.954 10.92 170.954 11.06V27.89H177.524C177.904 27.89 178.234 27.8 178.514 27.62C178.794 27.44 179.024 27.22 179.204 26.96C179.404 26.68 179.544 26.39 179.624 26.09C179.724 25.77 179.774 25.48 179.774 25.22H180.074V29H167.774V28.7Z" fill="#BB8C5F"/>
</svg>
