<svg width="168" height="21" viewBox="0 0 168 21" fill="none" xmlns="http://www.w3.org/2000/svg">
<path d="M16.11 19.8H16.26C16.4 19.8 16.53 19.74 16.65 19.62C16.77 19.5 16.87 19.36 16.95 19.2C17.05 19.04 17.12 18.87 17.16 18.69C17.2 18.49 17.22 18.31 17.22 18.15V2.37L9.48 20.43L2.13 3.3V18.15C2.13 18.31 2.15 18.49 2.19 18.69C2.23 18.87 2.29 19.04 2.37 19.2C2.47 19.36 2.58 19.5 2.7 19.62C2.82 19.74 2.96 19.8 3.12 19.8H3.27V20.1H-4.76837e-06V19.8H0.149995C0.289995 19.8 0.419995 19.74 0.539995 19.62C0.659995 19.5 0.759995 19.36 0.839995 19.2C0.919995 19.04 0.979995 18.87 1.02 18.69C1.06 18.49 1.08 18.31 1.08 18.15V2.16C1.08 2.02 1.06 1.86 1.02 1.68C0.979995 1.5 0.919995 1.33 0.839995 1.17C0.759995 1.01 0.659995 0.880001 0.539995 0.780001C0.419995 0.660001 0.289995 0.600001 0.149995 0.600001H-4.76837e-06V0.300002H3.06L10.02 16.71L16.98 0.300002H20.37V0.600001H20.22C20.06 0.600001 19.92 0.660001 19.8 0.780001C19.68 0.880001 19.57 1.01 19.47 1.17C19.39 1.33 19.33 1.5 19.29 1.68C19.25 1.86 19.23 2.02 19.23 2.16V18.15C19.23 18.31 19.25 18.49 19.29 18.69C19.33 18.87 19.39 19.04 19.47 19.2C19.57 19.36 19.68 19.5 19.8 19.62C19.92 19.74 20.06 19.8 20.22 19.8H20.37V20.1H16.11V19.8ZM27.3703 19.8H27.5203V20.1H23.2903V19.8H23.4403C23.5803 19.8 23.7103 19.74 23.8303 19.62C23.9503 19.5 24.0503 19.36 24.1303 19.2C24.2303 19.04 24.3003 18.87 24.3403 18.69C24.3803 18.49 24.4003 18.31 24.4003 18.15V2.16C24.4003 2.02 24.3803 1.86 24.3403 1.68C24.3003 1.5 24.2303 1.33 24.1303 1.17C24.0503 1.01 23.9503 0.880001 23.8303 0.780001C23.7103 0.660001 23.5803 0.600001 23.4403 0.600001H23.2903V0.300002H28.5103C30.5103 0.300002 32.0503 0.690001 33.1303 1.47C34.2303 2.25 34.7803 3.4 34.7803 4.92C34.7803 5.68 34.6503 6.35 34.3903 6.93C34.1503 7.49 33.8203 7.98 33.4003 8.4C32.9803 8.8 32.4803 9.13 31.9003 9.39C31.3403 9.63 30.7403 9.81 30.1003 9.93L32.2603 13.23C32.7803 14.03 33.3103 14.82 33.8503 15.6C34.3903 16.36 34.9203 17.15 35.4403 17.97C35.5803 18.17 35.7303 18.38 35.8903 18.6C36.0703 18.82 36.2503 19.02 36.4303 19.2C36.6303 19.38 36.8303 19.53 37.0303 19.65C37.2503 19.75 37.4703 19.8 37.6903 19.8V20.1H36.4003C35.6003 20.1 34.9403 19.91 34.4203 19.53C33.9203 19.13 33.5003 18.67 33.1603 18.15C32.2603 16.83 31.3603 15.49 30.4603 14.13C29.5803 12.77 28.7003 11.43 27.8203 10.11C27.6003 10.09 27.3603 10.07 27.1003 10.05C26.8603 10.01 26.6303 9.97 26.4103 9.93V18.15C26.4103 18.31 26.4303 18.49 26.4703 18.69C26.5103 18.87 26.5703 19.04 26.6503 19.2C26.7503 19.36 26.8503 19.5 26.9503 19.62C27.0703 19.74 27.2103 19.8 27.3703 19.8ZM26.4103 1.32V8.94H26.5603C26.7203 8.96 26.9703 8.98 27.3103 9C27.6703 9 28.1103 9 28.6303 9C29.0503 9 29.4903 8.94 29.9503 8.82C30.4303 8.68 30.8703 8.46 31.2703 8.16C31.6903 7.84 32.0303 7.43 32.2903 6.93C32.5703 6.43 32.7103 5.8 32.7103 5.04C32.7103 4.28 32.5603 3.66 32.2603 3.18C31.9803 2.7 31.5803 2.32 31.0603 2.04C30.5603 1.76 29.9503 1.57 29.2303 1.47C28.5103 1.37 27.7203 1.32 26.8603 1.32H26.4103ZM39.7015 18.81C39.7015 18.41 39.8315 18.07 40.0915 17.79C40.3715 17.51 40.7115 17.37 41.1115 17.37C41.5115 17.37 41.8515 17.51 42.1315 17.79C42.4115 18.07 42.5515 18.41 42.5515 18.81C42.5515 19.21 42.4115 19.55 42.1315 19.83C41.8515 20.09 41.5115 20.22 41.1115 20.22C40.7115 20.22 40.3715 20.09 40.0915 19.83C39.8315 19.55 39.7015 19.21 39.7015 18.81ZM53.2896 19.8H53.4396C53.5796 19.8 53.7096 19.74 53.8296 19.62C53.9496 19.5 54.0496 19.36 54.1296 19.2C54.2296 19.04 54.2996 18.87 54.3396 18.69C54.3796 18.49 54.3996 18.31 54.3996 18.15V2.16C54.3996 2.02 54.3796 1.86 54.3396 1.68C54.2996 1.5 54.2396 1.33 54.1596 1.17C54.0796 1.01 53.9796 0.880001 53.8596 0.780001C53.7396 0.660001 53.5996 0.600001 53.4396 0.600001H53.2896V0.300002H59.0796C60.6596 0.300002 62.0796 0.580001 63.3396 1.14C64.5996 1.68 65.6596 2.42 66.5196 3.36C67.3996 4.28 68.0696 5.34 68.5296 6.54C68.9896 7.74 69.2196 8.99 69.2196 10.29C69.2196 11.51 68.9996 12.71 68.5596 13.89C68.1196 15.05 67.4596 16.09 66.5796 17.01C65.6996 17.93 64.5996 18.68 63.2796 19.26C61.9596 19.82 60.4296 20.1 58.6896 20.1H53.2896V19.8ZM67.1796 10.74C67.1796 9.46 66.9496 8.25 66.4896 7.11C66.0296 5.97 65.3796 4.98 64.5396 4.14C63.7196 3.28 62.7396 2.6 61.5996 2.1C60.4796 1.6 59.2596 1.35 57.9396 1.35H56.4096V19.05H57.9996C59.0796 19.05 60.1596 18.89 61.2396 18.57C62.3396 18.23 63.3296 17.72 64.2096 17.04C65.0896 16.34 65.7996 15.47 66.3396 14.43C66.8996 13.39 67.1796 12.16 67.1796 10.74ZM75.8859 19.8H76.0359V20.1H71.8059V19.8H71.9559C72.0959 19.8 72.2259 19.74 72.3459 19.62C72.4659 19.5 72.5659 19.36 72.6459 19.2C72.7459 19.04 72.8159 18.87 72.8559 18.69C72.8959 18.49 72.9159 18.31 72.9159 18.15V2.16C72.9159 2.02 72.8959 1.86 72.8559 1.68C72.8159 1.5 72.7459 1.33 72.6459 1.17C72.5659 1.01 72.4659 0.880001 72.3459 0.780001C72.2259 0.660001 72.0959 0.600001 71.9559 0.600001H71.8059V0.300002H77.0259C79.0259 0.300002 80.5659 0.690001 81.6459 1.47C82.7459 2.25 83.2959 3.4 83.2959 4.92C83.2959 5.68 83.1659 6.35 82.9059 6.93C82.6659 7.49 82.3359 7.98 81.9159 8.4C81.4959 8.8 80.9959 9.13 80.4159 9.39C79.8559 9.63 79.2559 9.81 78.6159 9.93L80.7759 13.23C81.2959 14.03 81.8259 14.82 82.3659 15.6C82.9059 16.36 83.4359 17.15 83.9559 17.97C84.0959 18.17 84.2459 18.38 84.4059 18.6C84.5859 18.82 84.7659 19.02 84.9459 19.2C85.1459 19.38 85.3459 19.53 85.5459 19.65C85.7659 19.75 85.9859 19.8 86.2059 19.8V20.1H84.9159C84.1159 20.1 83.4559 19.91 82.9359 19.53C82.4359 19.13 82.0159 18.67 81.6759 18.15C80.7759 16.83 79.8759 15.49 78.9759 14.13C78.0959 12.77 77.2159 11.43 76.3359 10.11C76.1159 10.09 75.8759 10.07 75.6159 10.05C75.3759 10.01 75.1459 9.97 74.9259 9.93V18.15C74.9259 18.31 74.9459 18.49 74.9859 18.69C75.0259 18.87 75.0859 19.04 75.1659 19.2C75.2659 19.36 75.3659 19.5 75.4659 19.62C75.5859 19.74 75.7259 19.8 75.8859 19.8ZM74.9259 1.32V8.94H75.0759C75.2359 8.96 75.4859 8.98 75.8259 9C76.1859 9 76.6259 9 77.1459 9C77.5659 9 78.0059 8.94 78.4659 8.82C78.9459 8.68 79.3859 8.46 79.7859 8.16C80.2059 7.84 80.5459 7.43 80.8059 6.93C81.0859 6.43 81.2259 5.8 81.2259 5.04C81.2259 4.28 81.0759 3.66 80.7759 3.18C80.4959 2.7 80.0959 2.32 79.5759 2.04C79.0759 1.76 78.4659 1.57 77.7459 1.47C77.0259 1.37 76.2359 1.32 75.3759 1.32H74.9259ZM88.1271 0.300002H92.4171V0.600001H92.2671C92.1271 0.600001 91.9971 0.660001 91.8771 0.780001C91.7571 0.880001 91.6571 1.01 91.5771 1.17C91.4971 1.31 91.4271 1.48 91.3671 1.68C91.3271 1.86 91.3071 2.02 91.3071 2.16V18.15C91.3071 18.31 91.3271 18.49 91.3671 18.69C91.4071 18.87 91.4671 19.04 91.5471 19.2C91.6471 19.36 91.7471 19.5 91.8471 19.62C91.9671 19.74 92.1071 19.8 92.2671 19.8H92.4171V20.1H88.1271V19.8H88.2771C88.4371 19.8 88.5771 19.75 88.6971 19.65C88.8171 19.53 88.9171 19.39 88.9971 19.23C89.0971 19.05 89.1671 18.87 89.2071 18.69C89.2471 18.49 89.2671 18.31 89.2671 18.15V2.16C89.2671 2.02 89.2471 1.86 89.2071 1.68C89.1671 1.5 89.0971 1.33 88.9971 1.17C88.9171 1.01 88.8171 0.880001 88.6971 0.780001C88.5771 0.660001 88.4371 0.600001 88.2771 0.600001H88.1271V0.300002ZM107.452 14.79C107.452 15.79 107.252 16.65 106.852 17.37C106.452 18.07 105.932 18.64 105.292 19.08C104.672 19.52 103.962 19.84 103.162 20.04C102.382 20.24 101.602 20.34 100.822 20.34C100.022 20.34 99.332 20.26 98.752 20.1C98.172 19.94 97.642 19.79 97.162 19.65C96.842 19.55 96.552 19.47 96.292 19.41C96.032 19.33 95.772 19.29 95.512 19.29V15.87H95.812C95.812 16.63 96.002 17.24 96.382 17.7C96.782 18.14 97.242 18.48 97.762 18.72C98.282 18.96 98.802 19.12 99.322 19.2C99.842 19.26 100.222 19.29 100.462 19.29C101.322 19.29 102.062 19.17 102.682 18.93C103.302 18.67 103.812 18.34 104.212 17.94C104.612 17.52 104.902 17.06 105.082 16.56C105.282 16.06 105.382 15.55 105.382 15.03C105.382 14.37 105.242 13.82 104.962 13.38C104.682 12.92 104.312 12.52 103.852 12.18C103.412 11.84 102.902 11.55 102.322 11.31C101.742 11.07 101.152 10.83 100.552 10.59C99.872 10.33 99.202 10.06 98.542 9.78C97.882 9.5 97.292 9.16 96.772 8.76C96.252 8.34 95.832 7.85 95.512 7.29C95.192 6.71 95.032 6 95.032 5.16C95.032 4.28 95.202 3.52 95.542 2.88C95.882 2.22 96.332 1.68 96.892 1.26C97.472 0.840001 98.122 0.530001 98.842 0.330001C99.582 0.110002 100.332 1.78814e-06 101.092 1.78814e-06C101.612 1.78814e-06 102.102 0.0400019 102.562 0.120002C103.022 0.180001 103.462 0.260001 103.882 0.360001C104.222 0.440001 104.552 0.510001 104.872 0.570002C105.192 0.610001 105.502 0.630001 105.802 0.630001V3.72H105.502C105.462 2.68 105.052 1.98 104.272 1.62C103.492 1.24 102.412 1.05 101.032 1.05C100.232 1.05 99.572 1.19 99.052 1.47C98.552 1.73 98.152 2.06 97.852 2.46C97.552 2.84 97.342 3.26 97.222 3.72C97.122 4.16 97.072 4.55 97.072 4.89C97.072 5.45 97.192 5.93 97.432 6.33C97.692 6.73 98.032 7.08 98.452 7.38C98.872 7.68 99.352 7.95 99.892 8.19C100.452 8.43 101.032 8.66 101.632 8.88C102.312 9.14 103.002 9.42 103.702 9.72C104.402 10.02 105.022 10.39 105.562 10.83C106.122 11.27 106.572 11.81 106.912 12.45C107.272 13.09 107.452 13.87 107.452 14.79ZM114.149 19.8H114.299V20.1H110.009V19.8H110.159C110.319 19.8 110.459 19.74 110.579 19.62C110.699 19.5 110.799 19.36 110.879 19.2C110.979 19.04 111.049 18.87 111.089 18.69C111.129 18.49 111.149 18.31 111.149 18.15V2.16C111.149 2.02 111.129 1.86 111.089 1.68C111.049 1.5 110.979 1.33 110.879 1.17C110.799 1.01 110.699 0.880001 110.579 0.780001C110.459 0.660001 110.329 0.600001 110.189 0.600001H110.039V0.300002H114.329V0.600001H114.179C114.019 0.600001 113.879 0.660001 113.759 0.780001C113.639 0.880001 113.529 1.01 113.429 1.17C113.349 1.33 113.279 1.5 113.219 1.68C113.179 1.86 113.159 2.02 113.159 2.16V9.12L120.779 1.56C120.899 1.42 120.959 1.26 120.959 1.08C120.959 0.760002 120.839 0.600001 120.599 0.600001H120.449V0.300002H124.109V0.600001H123.959C123.679 0.600001 123.389 0.700001 123.089 0.900001C122.789 1.1 122.489 1.35 122.189 1.65L115.889 7.92L122.519 17.97C122.539 18.01 122.629 18.13 122.789 18.33C122.949 18.53 123.139 18.74 123.359 18.96C123.599 19.18 123.859 19.38 124.139 19.56C124.439 19.72 124.739 19.8 125.039 19.8V20.1H124.319C123.719 20.1 123.209 20.07 122.789 20.01C122.389 19.93 122.039 19.81 121.739 19.65C121.439 19.49 121.169 19.29 120.929 19.05C120.709 18.81 120.479 18.51 120.239 18.15L114.419 9.36L113.159 10.65V18.15C113.159 18.31 113.179 18.48 113.219 18.66C113.279 18.84 113.349 19.02 113.429 19.2C113.509 19.36 113.609 19.5 113.729 19.62C113.849 19.74 113.989 19.8 114.149 19.8ZM127.001 19.8H127.151C127.311 19.8 127.451 19.75 127.571 19.65C127.691 19.53 127.791 19.39 127.871 19.23C127.971 19.07 128.041 18.9 128.081 18.72C128.141 18.54 128.171 18.37 128.171 18.21V2.16C128.171 2.02 128.141 1.86 128.081 1.68C128.041 1.5 127.971 1.33 127.871 1.17C127.791 1.01 127.691 0.880001 127.571 0.780001C127.451 0.660001 127.311 0.600001 127.151 0.600001H127.001V0.300002H138.551V3.09H138.251C138.211 2.63 138.031 2.23 137.711 1.89C137.391 1.53 136.891 1.35 136.211 1.35H130.181V8.94H135.161C135.621 8.94 136.001 8.8 136.301 8.52C136.621 8.24 136.781 7.91 136.781 7.53H137.081V11.28H136.781C136.781 10.92 136.631 10.61 136.331 10.35C136.031 10.09 135.641 9.96 135.161 9.96H130.181V19.05H136.751C137.131 19.05 137.461 18.96 137.741 18.78C138.021 18.6 138.251 18.39 138.431 18.15C138.631 17.89 138.771 17.62 138.851 17.34C138.951 17.04 139.001 16.79 139.001 16.59H139.301V20.1H127.001V19.8ZM141.562 19.8H141.712C141.872 19.8 142.012 19.75 142.132 19.65C142.252 19.53 142.352 19.39 142.432 19.23C142.532 19.07 142.602 18.9 142.642 18.72C142.702 18.54 142.732 18.37 142.732 18.21V2.16C142.732 2.02 142.702 1.86 142.642 1.68C142.602 1.5 142.532 1.33 142.432 1.17C142.352 1.01 142.252 0.880001 142.132 0.780001C142.012 0.660001 141.872 0.600001 141.712 0.600001H141.562V0.300002H145.882V0.600001H145.732C145.572 0.600001 145.432 0.660001 145.312 0.780001C145.192 0.880001 145.092 1.01 145.012 1.17C144.932 1.33 144.862 1.5 144.802 1.68C144.762 1.86 144.742 2.02 144.742 2.16V18.99H151.312C151.692 18.99 152.022 18.9 152.302 18.72C152.582 18.54 152.812 18.32 152.992 18.06C153.192 17.78 153.332 17.49 153.412 17.19C153.512 16.87 153.562 16.58 153.562 16.32H153.862V20.1H141.562V19.8ZM155.507 19.8H155.657C155.817 19.8 155.957 19.75 156.077 19.65C156.197 19.53 156.297 19.39 156.377 19.23C156.477 19.07 156.547 18.9 156.587 18.72C156.647 18.54 156.677 18.37 156.677 18.21V2.16C156.677 2.02 156.647 1.86 156.587 1.68C156.547 1.5 156.477 1.33 156.377 1.17C156.297 1.01 156.197 0.880001 156.077 0.780001C155.957 0.660001 155.817 0.600001 155.657 0.600001H155.507V0.300002H159.827V0.600001H159.677C159.517 0.600001 159.377 0.660001 159.257 0.780001C159.137 0.880001 159.037 1.01 158.957 1.17C158.877 1.33 158.807 1.5 158.747 1.68C158.707 1.86 158.687 2.02 158.687 2.16V18.99H165.257C165.637 18.99 165.967 18.9 166.247 18.72C166.527 18.54 166.757 18.32 166.937 18.06C167.137 17.78 167.277 17.49 167.357 17.19C167.457 16.87 167.507 16.58 167.507 16.32H167.807V20.1H155.507V19.8Z" fill="#BB8C5F"/>
</svg>
