<svg width="728" height="210" viewBox="0 0 728 210" fill="none" xmlns="http://www.w3.org/2000/svg">
<path d="M237 5.5L239.387 0.5L233.613 0.5L236 5.5L237 5.5ZM236 204.5L233.613 209.5L239.387 209.5L237 204.5L236 204.5ZM236 5L236 205L237 205L237 5L236 5Z" fill="#D0D0D0"/>
<path d="M493 5.5L495.387 0.5L489.613 0.5L492 5.5L493 5.5ZM492 204.5L489.613 209.5L495.387 209.5L493 204.5L492 204.5ZM492 5L492 205L493 205L493 5L492 5Z" fill="#D0D0D0"/>
<path d="M722.5 106L727.5 108.387V102.613L722.5 105V106ZM5.5 105L0.5 102.613V108.387L5.5 106V105ZM723 105L5 105V106L723 106V105Z" fill="#D0D0D0"/>
</svg>
