<svg width="1221" height="204" viewBox="0 0 1221 204" fill="none" xmlns="http://www.w3.org/2000/svg">
<path d="M987.887 5.5L990.273 0.5L984.5 0.5L986.887 5.5L987.887 5.5ZM986.887 198.5L984.5 203.5L990.273 203.5L987.887 198.5L986.887 198.5ZM986.887 5L986.887 199L987.887 199L987.887 5L986.887 5Z" fill="#D0D0D0"/>
<path d="M736.887 5.5L739.273 0.5L733.5 0.5L735.887 5.5L736.887 5.5ZM735.887 198.5L733.5 203.5L739.273 203.5L736.887 198.5L735.887 198.5ZM735.887 5L735.887 199L736.887 199L736.887 5L735.887 5Z" fill="#D0D0D0"/>
<path d="M484.887 5.5L487.273 0.5L481.5 0.5L483.887 5.5L484.887 5.5ZM483.887 198.5L481.5 203.5L487.273 203.5L484.887 198.5L483.887 198.5ZM483.887 5L483.887 199L484.887 199L484.887 5L483.887 5Z" fill="#D0D0D0"/>
<path d="M234.887 5.5L237.273 0.5L231.5 0.5L233.887 5.5L234.887 5.5ZM233.887 198.5L231.5 203.5L237.273 203.5L234.887 198.5L233.887 198.5ZM233.887 5L233.887 199L234.887 199L234.887 5L233.887 5Z" fill="#D0D0D0"/>
<path d="M1212.39 103L1217.39 105.387V99.6132L1212.39 102V103ZM10.3867 102L5.38672 99.6132V105.387L10.3867 103V102ZM1212.89 102L9.88672 102V103L1212.89 103V102Z" fill="#D0D0D0"/>
</svg>
